<?xml version="1.0" encoding="UTF-8"?><svg xmlns="http://www.w3.org/2000/svg" xmlns:xlink="http://www.w3.org/1999/xlink" fill-opacity="1" color-rendering="auto" color-interpolation="auto" stroke="black" text-rendering="auto" stroke-linecap="square" width="507" stroke-miterlimit="10" stroke-opacity="1" shape-rendering="auto" fill="black" stroke-dasharray="none" font-weight="normal" stroke-width="1" height="232" font-family="'Dialog'" font-style="normal" stroke-linejoin="miter" font-size="12" stroke-dashoffset="0" image-rendering="auto">
  <!--Generated by ySVG 2.5-->
  <defs id="genericDefs"/>
  <g>
    <defs id="defs1">
      <clipPath clipPathUnits="userSpaceOnUse" id="clipPath1">
        <path d="M0 0 L507 0 L507 232 L0 232 L0 0 Z"/>
      </clipPath>
      <clipPath clipPathUnits="userSpaceOnUse" id="clipPath2">
        <path d="M222 99 L729 99 L729 331 L222 331 L222 99 Z"/>
      </clipPath>
      <clipPath clipPathUnits="userSpaceOnUse" id="clipPath3">
        <path d="M0 0 L0 20 L136 20 L136 0 Z"/>
      </clipPath>
      <clipPath clipPathUnits="userSpaceOnUse" id="clipPath4">
        <path d="M0 0 L0 20 L15 20 L15 0 Z"/>
      </clipPath>
      <clipPath clipPathUnits="userSpaceOnUse" id="clipPath5">
        <path d="M0 0 L0 20 L58 20 L58 0 Z"/>
      </clipPath>
      <clipPath clipPathUnits="userSpaceOnUse" id="clipPath6">
        <path d="M0 0 L0 20 L13 20 L13 0 Z"/>
      </clipPath>
      <clipPath clipPathUnits="userSpaceOnUse" id="clipPath7">
        <path d="M0 0 L0 16 L9 16 L9 0 Z"/>
      </clipPath>
      <clipPath clipPathUnits="userSpaceOnUse" id="clipPath8">
        <path d="M0 0 L0 16 L12 16 L12 0 Z"/>
      </clipPath>
    </defs>
    <g fill="white" text-rendering="geometricPrecision" shape-rendering="geometricPrecision" transform="translate(-222,-99)" stroke="white">
      <rect x="222" width="507" height="232" y="99" clip-path="url(#clipPath2)" stroke="none"/>
    </g>
    <g text-rendering="geometricPrecision" stroke-miterlimit="1.45" shape-rendering="geometricPrecision" font-family="sans-serif" transform="matrix(1,0,0,1,-222,-99) translate(487,119)" stroke-linecap="butt">
      <text x="0" xml:space="preserve" y="12" clip-path="url(#clipPath3)" stroke="none">w</text>
      <text x="9" xml:space="preserve" font-size="10" y="17" clip-path="url(#clipPath3)" stroke="none">c</text>
      <text x="14" xml:space="preserve" y="12" clip-path="url(#clipPath3)" stroke="none">=f(s</text>
      <text x="40" xml:space="preserve" font-size="10" y="17" clip-path="url(#clipPath3)" stroke="none">c,a</text>
      <text x="54" xml:space="preserve" y="12" clip-path="url(#clipPath3)" stroke="none">+s</text>
      <text x="71" xml:space="preserve" font-size="10" y="17" clip-path="url(#clipPath3)" stroke="none">c,Ln</text>
      <text x="91" xml:space="preserve" y="12" clip-path="url(#clipPath3)" stroke="none">)&lt;=1.0</text>
    </g>
    <g text-rendering="geometricPrecision" stroke-miterlimit="1.45" shape-rendering="geometricPrecision" font-family="sans-serif" transform="matrix(1,0,0,1,-222,-99)" stroke-linecap="butt">
      <text x="530.9317" xml:space="preserve" y="270.7717" clip-path="url(#clipPath2)" stroke="none">0.0</text>
    </g>
    <g text-rendering="geometricPrecision" stroke-miterlimit="1.45" shape-rendering="geometricPrecision" font-family="sans-serif" transform="matrix(1,0,0,1,-222,-99)" stroke-linecap="butt">
      <text x="530.9317" xml:space="preserve" y="175.1545" clip-path="url(#clipPath2)" stroke="none">1.0</text>
    </g>
    <g text-rendering="geometricPrecision" stroke-miterlimit="1.45" shape-rendering="geometricPrecision" font-family="sans-serif" transform="matrix(1,0,0,1,-222,-99) translate(609,272)" stroke-linecap="butt">
      <text x="0" xml:space="preserve" y="12" clip-path="url(#clipPath4)" stroke="none">w</text>
      <text x="9" xml:space="preserve" font-size="10" y="17" clip-path="url(#clipPath4)" stroke="none">o</text>
    </g>
    <g text-rendering="geometricPrecision" stroke-miterlimit="1.45" shape-rendering="geometricPrecision" font-family="sans-serif" transform="matrix(1,0,0,1,-222,-99) translate(570,288)" stroke-linecap="butt">
      <text x="0" xml:space="preserve" y="12" clip-path="url(#clipPath5)" stroke="none">s</text>
      <text x="7" xml:space="preserve" font-size="10" y="17" clip-path="url(#clipPath5)" stroke="none">c,a</text>
      <text x="21" xml:space="preserve" y="12" clip-path="url(#clipPath5)" stroke="none">+s</text>
      <text x="38" xml:space="preserve" font-size="10" y="17" clip-path="url(#clipPath5)" stroke="none">c,Ln</text>
    </g>
    <g text-rendering="geometricPrecision" stroke-miterlimit="1.45" shape-rendering="geometricPrecision" font-family="sans-serif" transform="matrix(1,0,0,1,-222,-99) translate(298,200)" stroke-linecap="butt">
      <text x="0" xml:space="preserve" y="12" clip-path="url(#clipPath6)" stroke="none">e</text>
      <text x="8" xml:space="preserve" font-size="10" y="17" clip-path="url(#clipPath6)" stroke="none">z</text>
    </g>
    <g text-rendering="geometricPrecision" stroke-width="4" stroke-miterlimit="1.45" shape-rendering="geometricPrecision" transform="matrix(1,0,0,1,-222,-99)" stroke-linecap="butt">
      <ellipse rx="14.8899" fill="none" ry="15.6938" clip-path="url(#clipPath2)" cx="305.1564" cy="210.6656"/>
    </g>
    <g font-size="10" stroke-linecap="butt" transform="matrix(1,0,0,1,-222,-99) translate(287,142)" fill="silver" text-rendering="geometricPrecision" font-family="sans-serif" shape-rendering="geometricPrecision" stroke="silver" stroke-miterlimit="1.45">
      <text x="0" xml:space="preserve" y="10" clip-path="url(#clipPath7)" stroke="none">t</text>
      <text x="4" xml:space="preserve" font-size="8" y="14" clip-path="url(#clipPath7)" stroke="none">k</text>
    </g>
    <g stroke-linecap="butt" transform="matrix(1,0,0,1,-222,-99)" fill="silver" text-rendering="geometricPrecision" shape-rendering="geometricPrecision" stroke="silver" stroke-width="2" stroke-miterlimit="1.45">
      <circle fill="none" r="15" clip-path="url(#clipPath2)" cx="291.5739" cy="150.3645"/>
      <ellipse clip-path="url(#clipPath2)" fill="none" rx="5.5792" cx="330.7595" ry="5.9888" cy="156.6365" stroke="lime"/>
      <ellipse clip-path="url(#clipPath2)" fill="none" rx="5.3744" cx="251.2667" ry="5.1696" cy="167.2845" stroke="black"/>
      <ellipse rx="5.9888" fill="none" ry="6.1936" clip-path="url(#clipPath2)" cx="361.2307" cy="231.6357"/>
    </g>
    <g font-size="10" stroke-linecap="butt" transform="matrix(1,0,0,1,-222,-99) translate(337,254)" fill="lime" text-rendering="geometricPrecision" font-family="sans-serif" shape-rendering="geometricPrecision" stroke="lime" stroke-miterlimit="1.45">
      <text x="0" xml:space="preserve" y="10" clip-path="url(#clipPath8)" stroke="none">t</text>
      <text x="4" xml:space="preserve" font-size="8" y="14" clip-path="url(#clipPath8)" stroke="none">m</text>
    </g>
    <g stroke-linecap="butt" transform="matrix(1,0,0,1,-222,-99)" fill="lime" text-rendering="geometricPrecision" shape-rendering="geometricPrecision" stroke="lime" stroke-width="2" stroke-miterlimit="1.45">
      <circle fill="none" r="15" clip-path="url(#clipPath2)" cx="343.2324" cy="262.5823"/>
    </g>
    <g font-size="10" stroke-linecap="butt" transform="matrix(1,0,0,1,-222,-99) translate(248,223)" text-rendering="geometricPrecision" font-family="sans-serif" shape-rendering="geometricPrecision" stroke-miterlimit="1.45">
      <text x="0" xml:space="preserve" y="10" clip-path="url(#clipPath7)" stroke="none">t</text>
      <text x="4" xml:space="preserve" font-size="8" y="14" clip-path="url(#clipPath7)" stroke="none">n</text>
    </g>
    <g text-rendering="geometricPrecision" stroke-width="2" stroke-miterlimit="1.45" shape-rendering="geometricPrecision" transform="matrix(1,0,0,1,-222,-99)" stroke-linecap="butt">
      <circle fill="none" r="15" clip-path="url(#clipPath2)" cx="252.6267" cy="231.3725"/>
      <ellipse rx="5.9888" fill="none" ry="6.1936" clip-path="url(#clipPath2)" cx="293.2309" cy="287.1871"/>
      <ellipse clip-path="url(#clipPath2)" fill="none" rx="5.9888" cx="265.4436" ry="6.1936" cy="262.8077" stroke="silver"/>
      <ellipse rx="5.3744" fill="none" ry="5.1696" clip-path="url(#clipPath2)" cx="355.4921" cy="201.4556"/>
      <path fill="none" stroke-width="1" d="M555.756 152.4013 L555.4737 266.6174" clip-path="url(#clipPath2)"/>
      <path stroke-width="1" d="M555.7758 144.4014 L550.7462 156.389 L555.7535 153.4013 L560.7462 156.4137 Z" clip-path="url(#clipPath2)" stroke="none"/>
      <path fill="none" stroke-width="1" stroke-dasharray="6,2" d="M555.4737 171.0002 L664.2626 171.0002 L666.7156 171.0002" clip-path="url(#clipPath2)"/>
      <path fill="none" stroke-width="1" d="M563.0527 262.6277 L570.8264 262.6277 L589.9716 256.9581 L597.5441 250.5341 L604.5677 242.1942 L609.2881 233.5052 L612.9564 224.5781 L615.1298 218.8602 L618.0372 210.991 L620.6329 204.0008 L623.2184 196.6212 L627.3588 188.6924 L633.2665 180.6517 L641.6835 175.1156 L653.0955 173.5406 L666.6851 173.5406" clip-path="url(#clipPath2)"/>
      <path fill="none" stroke-width="1" stroke-dasharray="6,2" d="M616.9559 216.0002 L616.9559 221.2069 L616.9559 267.0748" clip-path="url(#clipPath2)"/>
      <path fill="none" stroke-width="1" stroke-dasharray="6,2" d="M616.7912 214.4917 L556.5394 214.4917" clip-path="url(#clipPath2)"/>
      <path fill="none" stroke-width="1" d="M555.4737 266.4077 L675.0223 264.7372" clip-path="url(#clipPath2)"/>
      <path stroke-width="1" d="M683.0215 264.6254 L670.9528 259.7935 L674.0223 264.7511 L671.0925 269.7925 Z" clip-path="url(#clipPath2)" stroke="none"/>
      <path fill="none" stroke-width="1" d="M555.4737 245.7393 L600.4737 245.7393 L600.4737 285.0593" clip-path="url(#clipPath2)"/>
      <path fill="none" d="M301.717 195.3963 L294.8699 164.9979" clip-path="url(#clipPath2)" stroke="silver"/>
      <path fill="none" stroke-dasharray="12,4" d="M311.8096 196.6257 L328.2299 161.9744" clip-path="url(#clipPath2)" stroke="lime"/>
      <path fill="none" stroke-dasharray="12,4" d="M293.3231 201.1398 L255.3943 170.6072" clip-path="url(#clipPath2)"/>
      <path fill="none" stroke-dasharray="12,4" d="M319.1891 215.9135 L355.606 229.5323" clip-path="url(#clipPath2)" stroke="silver"/>
      <path fill="none" d="M314.2628 223.0822 L334.3774 250.5085" clip-path="url(#clipPath2)" stroke="lime"/>
      <path fill="none" d="M291.2099 216.1632 L266.6056 225.8621" clip-path="url(#clipPath2)"/>
      <path fill="none" d="M302.7429 226.1519 L294.1838 281.0724" clip-path="url(#clipPath2)"/>
      <path fill="none" stroke-dasharray="12,4" d="M295.8353 222.904 L269.1493 257.9422" clip-path="url(#clipPath2)" stroke="silver"/>
      <path fill="none" d="M319.8269 207.9813 L350.2124 202.4216" clip-path="url(#clipPath2)"/>
    </g>
  </g>
</svg>
